<svg width="49" height="48" viewBox="0 0 49 48" fill="none" xmlns="http://www.w3.org/2000/svg">
<path fill-rule="evenodd" clip-rule="evenodd" d="M24.7427 3C19.5199 3.00271 14.4682 4.85255 10.4912 8.21875C6.51409 11.5849 3.8709 16.248 3.03422 21.3741C2.19755 26.5002 3.22193 31.7551 5.92422 36.1991C8.62652 40.6431 12.8305 43.9865 17.7844 45.6315C18.8774 45.8343 19.289 45.1569 19.289 44.581C19.289 44.005 19.2672 42.3351 19.2599 40.5094C13.1395 41.8316 11.8462 37.9267 11.8462 37.9267C10.848 35.3911 9.40538 34.7246 9.40538 34.7246C7.40897 33.3698 9.55476 33.3951 9.55476 33.3951C11.7661 33.5509 12.9282 35.6519 12.9282 35.6519C14.8882 38.9953 18.0759 38.0281 19.3291 37.4631C19.5258 36.0467 20.0978 35.0832 20.7281 34.5362C15.839 33.9856 10.7023 32.1092 10.7023 23.7271C10.672 21.5532 11.4833 19.451 12.9683 17.8553C12.7424 17.3047 11.9883 15.0805 13.1832 12.0595C13.1832 12.0595 15.0303 11.4727 19.2344 14.3017C22.8404 13.3212 26.645 13.3212 30.251 14.3017C34.4515 11.4727 36.2949 12.0595 36.2949 12.0595C37.4935 15.0733 36.7394 17.2974 36.5135 17.8553C38.0032 19.4512 38.8162 21.5572 38.7831 23.7343C38.7831 32.1346 33.6355 33.9856 28.7392 34.5253C29.5261 35.2063 30.2292 36.5357 30.2292 38.5787C30.2292 41.5056 30.2037 43.8601 30.2037 44.581C30.2037 45.1642 30.6008 45.8452 31.7155 45.6315C36.6701 43.9863 40.8745 40.6423 43.5767 36.1976C46.279 31.7528 47.3028 26.4971 46.4652 21.3705C45.6276 16.244 42.9831 11.5809 39.0047 8.21523C35.0263 4.84961 29.9735 3.00099 24.75 3H24.7427Z" fill="white"/>
<path d="M11.0734 34.4094C11.026 34.5181 10.8512 34.5507 10.7091 34.4746C10.567 34.3985 10.4614 34.2573 10.5124 34.145C10.5634 34.0327 10.7346 34.0037 10.8767 34.0798C11.0187 34.1558 11.128 34.3007 11.0734 34.4094Z" fill="white"/>
<path d="M11.966 35.3983C11.8905 35.4361 11.8042 35.4467 11.7218 35.4282C11.6394 35.4096 11.566 35.3632 11.5142 35.2969C11.3722 35.1447 11.343 34.9346 11.4523 34.8405C11.5616 34.7463 11.7583 34.7898 11.9004 34.9419C12.0425 35.094 12.0753 35.3041 11.966 35.3983Z" fill="white"/>
<path d="M12.8331 36.6553C12.6983 36.7494 12.4688 36.6553 12.3412 36.4669C12.306 36.4331 12.278 36.3926 12.2588 36.3478C12.2396 36.303 12.2298 36.2548 12.2298 36.2061C12.2298 36.1574 12.2396 36.1092 12.2588 36.0644C12.278 36.0196 12.306 35.9791 12.3412 35.9453C12.476 35.8547 12.7056 35.9453 12.8331 36.13C12.9606 36.3148 12.9642 36.5611 12.8331 36.6553Z" fill="white"/>
<path d="M14.0098 37.8724C13.8895 38.0064 13.6454 37.9702 13.4451 37.789C13.2447 37.6079 13.1973 37.3616 13.3176 37.2312C13.4378 37.1008 13.6819 37.137 13.8895 37.3145C14.0972 37.492 14.1373 37.742 14.0098 37.8724Z" fill="white"/>
<path d="M15.66 38.5823C15.6054 38.7526 15.3576 38.8287 15.1099 38.7562C14.8622 38.6838 14.6982 38.4809 14.7456 38.307C14.793 38.1332 15.0443 38.0535 15.2957 38.1332C15.5471 38.2129 15.7074 38.4049 15.66 38.5823Z" fill="white"/>
<path d="M17.4598 38.7055C17.4598 38.883 17.2558 39.0351 16.9935 39.0388C16.7312 39.0424 16.5162 38.8975 16.5162 38.72C16.5162 38.5425 16.7202 38.3904 16.9825 38.3867C17.2448 38.3831 17.4598 38.5244 17.4598 38.7055Z" fill="white"/>
<path d="M19.1356 38.4266C19.1684 38.6041 18.9862 38.7888 18.7239 38.8323C18.4616 38.8758 18.2321 38.7707 18.1993 38.5968C18.1665 38.423 18.356 38.2346 18.611 38.1875C18.866 38.1404 19.1028 38.2491 19.1356 38.4266Z" fill="white"/>
</svg>
