<svg width="49" height="48" viewBox="0 0 49 48" fill="none" xmlns="http://www.w3.org/2000/svg">
<path d="M43.0019 2H5.49806C4.63662 2 3.81046 2.34221 3.20133 2.95133C2.59221 3.56046 2.25 4.38662 2.25 5.24806V42.7519C2.25 43.6134 2.59221 44.4395 3.20133 45.0487C3.81046 45.6578 4.63662 46 5.49806 46H43.0019C43.8634 46 44.6895 45.6578 45.2987 45.0487C45.9078 44.4395 46.25 43.6134 46.25 42.7519V5.24806C46.25 4.38662 45.9078 3.56046 45.2987 2.95133C44.6895 2.34221 43.8634 2 43.0019 2ZM15.3644 39.4825H8.74917V18.4694H15.3644V39.4825ZM12.0522 15.5575C11.3018 15.5533 10.5695 15.3269 9.94768 14.9068C9.32585 14.4868 8.84237 13.892 8.55828 13.1974C8.27418 12.5029 8.20219 11.7398 8.35139 11.0043C8.50059 10.2689 8.8643 9.59417 9.39662 9.06527C9.92893 8.53636 10.606 8.17699 11.3424 8.03251C12.0787 7.88803 12.8414 7.96492 13.5341 8.25347C14.2268 8.54203 14.8185 9.02931 15.2345 9.65382C15.6505 10.2783 15.8723 11.0121 15.8717 11.7625C15.8787 12.2649 15.7846 12.7636 15.5949 13.2288C15.4051 13.694 15.1236 14.1163 14.7672 14.4705C14.4108 14.8246 13.9867 15.1034 13.5203 15.2901C13.0538 15.4769 12.5546 15.5678 12.0522 15.5575ZM39.7478 39.5008H33.1356V28.0211C33.1356 24.6356 31.6964 23.5906 29.8386 23.5906C27.8769 23.5906 25.9519 25.0694 25.9519 28.1067V39.5008H19.3367V18.4847H25.6983V21.3967H25.7839C26.4225 20.1042 28.6592 17.895 32.0722 17.895C35.7633 17.895 39.7508 20.0858 39.7508 26.5025L39.7478 39.5008Z" fill="white"/>
</svg>
