<svg width="49" height="48" viewBox="0 0 49 48" fill="none" xmlns="http://www.w3.org/2000/svg">
<path d="M5.05713 14.1216L24.2499 23.7168L43.4427 14.1216C43.3717 12.8986 42.8357 11.7491 41.9447 10.9085C41.0537 10.0679 39.8749 9.59975 38.6499 9.59998H9.84993C8.62493 9.59975 7.4462 10.0679 6.55516 10.9085C5.66411 11.7491 5.12818 12.8986 5.05713 14.1216V14.1216Z" fill="white"/>
<path d="M43.4501 19.4832L24.25 29.0832L5.05005 19.4832V33.6C5.05005 34.873 5.55576 36.0939 6.45594 36.9941C7.35611 37.8942 8.57701 38.4 9.85005 38.4H38.6501C39.9231 38.4 41.144 37.8942 42.0442 36.9941C42.9443 36.0939 43.4501 34.873 43.4501 33.6V19.4832Z" fill="white"/>
</svg>
