<svg width="49" height="48" viewBox="0 0 49 48" fill="none" xmlns="http://www.w3.org/2000/svg">
<path d="M5.55005 7.20005C5.55005 6.56353 5.80291 5.95308 6.25299 5.50299C6.70308 5.05291 7.31353 4.80005 7.95005 4.80005H13.1172C13.6853 4.80031 14.2349 5.00208 14.6682 5.36947C15.1015 5.73686 15.3905 6.24605 15.4836 6.80645L17.2596 17.4504C17.3445 17.9574 17.2644 18.4781 17.0311 18.9361C16.7978 19.3941 16.4236 19.7651 15.9636 19.9945L12.2484 21.8496C13.5807 25.1512 15.5648 28.1503 18.0823 30.6678C20.5998 33.1853 23.5989 35.1694 26.9004 36.5016L28.758 32.7865C28.9873 32.3269 29.3579 31.9531 29.8154 31.7198C30.2729 31.4865 30.7931 31.4061 31.2997 31.4905L41.9436 33.2665C42.5041 33.3596 43.0132 33.6486 43.3806 34.0819C43.748 34.5152 43.9498 35.0648 43.9501 35.6329V40.8001C43.9501 41.4366 43.6972 42.047 43.2471 42.4971C42.797 42.9472 42.1866 43.2001 41.5501 43.2001H36.7501C19.518 43.2001 5.55005 29.232 5.55005 12V7.20005Z" fill="white"/>
</svg>
